<svg width="16" height="20" viewBox="0 0 16 20" fill="none" xmlns="http://www.w3.org/2000/svg">
<path d="M12.1669 6.6081L13.0721 4.84282C13.5975 3.81821 13.5616 2.58668 12.9774 1.59606C12.3932 0.605392 11.3459 0 10.2162 0H5.78375C4.65409 0 3.60671 0.605392 3.02251 1.59602C2.43831 2.58665 2.4024 3.81817 2.92781 4.84278L3.83302 6.60806C1.53592 8.04998 0 10.6458 0 13.6024C0 15.6048 0.712679 17.5328 2.00677 19.0312C2.53847 19.6469 3.30384 20 4.10665 20H11.8934C12.6962 20 13.4615 19.6469 13.9932 19.0312C15.2873 17.5328 16 15.6048 16 13.6024C16 10.6458 14.464 8.05002 12.1669 6.6081ZM10.5132 3.8429L9.62458 5.57583C9.09982 5.46446 8.55642 5.40575 7.99994 5.40575C7.44346 5.40575 6.90006 5.46443 6.3753 5.57583L5.48667 3.8429C5.37203 3.6193 5.37985 3.35051 5.50734 3.1343C5.63483 2.91813 5.86339 2.78598 6.10995 2.78598H9.89001C10.1366 2.78598 10.3651 2.91809 10.4926 3.1343C10.6201 3.35051 10.6279 3.61927 10.5132 3.8429Z" fill="#333333" fill-opacity="0.6"/>
</svg>
