<svg width="27" height="31" viewBox="0 0 27 31" fill="none" xmlns="http://www.w3.org/2000/svg">
<path d="M13.5192 0.000897938C8.01238 -0.0628199 3.03763 3.26962 1.03747 8.37342C-1.09731 13.4135 0.127142 19.2437 4.11464 23.0158L10.0571 28.6926C11.993 30.542 15.042 30.5383 16.9734 28.6843L22.8854 23.0094C26.8729 19.2373 28.0973 13.4135 25.9625 8.36705C23.9624 3.28237 19.0133 -0.0437046 13.5192 0.000897938ZM17.7952 17.6635C15.4296 20.0083 11.6024 20.0083 9.24325 17.6571C6.88409 15.3059 6.88409 11.502 9.24966 9.15715C11.6152 6.81234 15.4425 6.81234 17.8016 9.16352C18.9363 10.2913 19.571 11.8142 19.571 13.4071C19.5646 15.0064 18.9299 16.5357 17.7952 17.6635Z" fill="white"/>
</svg>
