<svg width="17" height="20" viewBox="0 0 17 20" fill="none" xmlns="http://www.w3.org/2000/svg">
<path d="M0 7.90155C0 6.83124 0.862462 4.96796 2.49244 2.52264C3.02177 1.72624 3.55508 0.987491 3.99475 0.399006C4.38235 -0.119799 5.15256 -0.119998 5.53961 0.399226C5.81238 0.765155 6.12131 1.18924 6.44358 1.64896C6.68242 1.98965 6.67738 2.44274 6.43975 2.78427C6.20298 3.12456 5.96222 3.47587 5.72469 3.83514C4.05474 6.33979 2.92705 8.42153 2.3493 10.0576C2.09652 10.7734 1.19535 11.1083 0.776714 10.475C0.278572 9.72151 0 8.82947 0 7.90155ZM9.77589 19.3898C5.79195 19.3898 2.55178 16.1906 2.55178 12.257C2.55178 9.20909 6.95221 3.07643 9.00393 0.384736C9.39495 -0.128243 10.1569 -0.128264 10.5479 0.384665C12.5997 3.07569 17 9.20577 17 12.257C17 16.1906 13.7598 19.3898 9.77589 19.3898Z" fill="#333333" fill-opacity="0.6"/>
</svg>
