<svg width="17" height="17" viewBox="0 0 17 17" fill="none" xmlns="http://www.w3.org/2000/svg">
<path fill-rule="evenodd" clip-rule="evenodd" d="M6.52649 0C6.58659 0 6.6085 0.079135 6.55698 0.11006C6.35294 0.232483 6.21668 0.442085 6.18761 0.678254C6.15853 0.914415 6.23988 1.15081 6.40814 1.31907L8.95266 3.86359L6.40814 6.40808C6.25726 6.55896 6.18181 6.75673 6.18181 6.95448C6.18181 6.99465 6.18493 7.03483 6.19115 7.07463C6.21556 7.23064 6.28789 7.3807 6.40814 7.50094L8.95259 10.0455L6.40814 12.5899C6.25726 12.7408 6.18181 12.9385 6.18181 13.1363C6.18181 13.199 6.18941 13.2618 6.20458 13.323C6.23726 13.4548 6.30511 13.5798 6.40814 13.6828L8.91495 16.1896L8.09803 16.9044C8.02763 16.966 7.93722 17 7.84365 17H2.31818C1.03789 17 0 15.9622 0 14.6818V2.31818C0 1.03789 1.03789 0 2.31818 0H6.52649ZM10.6262 17C10.5254 17 10.4785 16.8751 10.5543 16.8088C10.7153 16.6679 10.8106 16.4667 10.8177 16.2529C10.8248 16.0392 10.7431 15.832 10.5919 15.6808L8.04734 13.1364L10.5919 10.5919C10.7428 10.4409 10.8182 10.2432 10.8182 10.0454C10.8182 10.0023 10.8146 9.9593 10.8074 9.91672C10.7817 9.76372 10.7098 9.61705 10.5919 9.49898L8.04734 6.95451L10.5919 4.41004C10.7587 4.24323 10.8333 4.01914 10.8156 3.80108C10.8014 3.62464 10.7268 3.45215 10.5919 3.31717L8.20072 0.926083L9.65245 0.0550568C9.71249 0.0190322 9.78118 0 9.85127 0H14.6818C15.9621 0 17 1.03789 17 2.31818V14.6818C17 15.9622 15.9621 17 14.6818 17H10.6262Z" fill="#333333" fill-opacity="0.6"/>
</svg>
