<svg width="72" height="72" viewBox="0 0 72 72" fill="none" xmlns="http://www.w3.org/2000/svg">
<rect x="3.14722e-06" y="72" width="72" height="72" rx="4" transform="rotate(-90 3.14722e-06 72)" fill="#333333" fill-opacity="0.2"/>
<rect x="6.9231" y="6.9231" width="8.30769" height="8.30769" rx="4.15385" fill="white" fill-opacity="0.4"/>
<rect x="6.9231" y="40.1539" width="8.30769" height="8.30769" rx="4.15385" fill="white" fill-opacity="0.4"/>
<rect x="15.2307" y="23.5385" width="8.30769" height="8.30769" rx="4.15385" fill="white" fill-opacity="0.4"/>
<rect x="15.2307" y="56.7693" width="8.30769" height="8.30769" rx="4.15385" fill="white" fill-opacity="0.4"/>
<rect x="23.5386" y="6.9231" width="8.30769" height="8.30769" rx="4.15385" fill="white" fill-opacity="0.4"/>
<rect x="23.5386" y="40.1539" width="8.30769" height="8.30769" rx="4.15385" fill="white" fill-opacity="0.4"/>
<rect x="31.8462" y="23.5385" width="8.30769" height="8.30769" rx="4.15385" fill="white" fill-opacity="0.4"/>
<rect x="31.8462" y="56.7692" width="8.30769" height="8.30769" rx="4.15385" fill="white" fill-opacity="0.4"/>
<rect x="40.1538" y="6.9231" width="8.30769" height="8.30769" rx="4.15385" fill="white" fill-opacity="0.4"/>
<rect x="40.1538" y="40.1539" width="8.30769" height="8.30769" rx="4.15385" fill="white" fill-opacity="0.4"/>
<rect x="48.4614" y="23.5385" width="8.30769" height="8.30769" rx="4.15385" fill="white" fill-opacity="0.4"/>
<rect x="48.4614" y="56.7693" width="8.30769" height="8.30769" rx="4.15385" fill="white" fill-opacity="0.4"/>
<rect x="56.7693" y="6.9231" width="8.30769" height="8.30769" rx="4.15385" fill="white" fill-opacity="0.4"/>
<rect x="56.7693" y="40.1539" width="8.30769" height="8.30769" rx="4.15385" fill="white" fill-opacity="0.4"/>
</svg>
