<svg width="81" height="56" viewBox="0 0 81 56" fill="none" xmlns="http://www.w3.org/2000/svg">
<rect width="81" height="56" rx="28" fill="white" fill-opacity="0.1"/>
<path d="M29.2929 27.2929C28.9024 27.6834 28.9024 28.3166 29.2929 28.7071L35.6569 35.0711C36.0474 35.4616 36.6805 35.4616 37.0711 35.0711C37.4616 34.6805 37.4616 34.0474 37.0711 33.6569L31.4142 28L37.0711 22.3431C37.4616 21.9526 37.4616 21.3195 37.0711 20.9289C36.6805 20.5384 36.0474 20.5384 35.6569 20.9289L29.2929 27.2929ZM50 17L49 17L49 20L50 20L51 20L51 17L50 17ZM42 28L42 27L30 27L30 28L30 29L42 29L42 28ZM50 20L49 20C49 23.866 45.866 27 42 27L42 28L42 29C46.9706 29 51 24.9706 51 20L50 20Z" fill="white"/>
</svg>
