<svg width="191" height="56" viewBox="0 0 191 56" fill="none" xmlns="http://www.w3.org/2000/svg">
<rect width="191" height="56" rx="28" fill="white" fill-opacity="0.1"/>
<path d="M45.7929 40.2927C45.4024 40.6833 45.4024 41.3164 45.7929 41.707L52.1569 48.0709C52.5474 48.4614 53.1805 48.4614 53.5711 48.0709C53.9616 47.6804 53.9616 47.0472 53.5711 46.6567L47.9142 40.9999L53.5711 35.343C53.9616 34.9525 53.9616 34.3193 53.5711 33.9288C53.1805 33.5383 52.5474 33.5383 52.1569 33.9288L45.7929 40.2927ZM153.5 40.9999L153.5 39.9999L46.5 39.9999L46.5 40.9999L46.5 41.9999L153.5 41.9999L153.5 40.9999ZM23 14L23 15L153.5 15L153.5 14L153.5 13L23 13L23 14ZM153.5 14L153.5 15C160.404 15 166 20.5964 166 27.4999L167 27.4999L168 27.4999C168 19.4919 161.508 13 153.5 13L153.5 14ZM153.5 40.9999L153.5 41.9999C161.508 41.9999 168 35.508 168 27.4999L167 27.4999L166 27.4999C166 34.4034 160.404 39.9999 153.5 39.9999L153.5 40.9999Z" fill="white"/>
</svg>
