<svg width="106" height="75" viewBox="0 0 106 75" fill="none" xmlns="http://www.w3.org/2000/svg">
<g opacity="0.1" clip-path="url(#clip0_2202_529)">
<path fill-rule="evenodd" clip-rule="evenodd" d="M41.6429 74.812C40.3849 74.9373 39.1214 75 37.8571 75C27.8168 75 18.1877 71.0491 11.0881 64.0165C3.98851 56.9839 0 47.4456 0 37.5C0 27.5544 3.98851 18.0161 11.0881 10.9835C18.1877 3.95088 27.8168 0 37.8571 0C39.1214 -3.60537e-08 40.3849 0.0627356 41.6429 0.187971V11.438C40.3871 11.2859 39.122 11.2231 37.8571 11.25C30.8289 11.25 24.0885 14.0156 19.1188 18.9384C14.1491 23.8613 11.3571 30.5381 11.3571 37.5C11.3571 44.4619 14.1491 51.1387 19.1188 56.0616C24.0885 60.9844 30.8289 63.75 37.8571 63.75C39.122 63.7769 40.3871 63.7141 41.6429 63.562V74.812Z" fill="black"/>
<path fill-rule="evenodd" clip-rule="evenodd" d="M106 74.812C104.742 74.9373 103.479 75 102.214 75C92.174 75 82.5449 71.0491 75.4453 64.0165C68.3457 56.9839 64.3572 47.4456 64.3572 37.5C64.3572 27.5544 68.3457 18.0161 75.4453 10.9835C82.5449 3.95088 92.174 0 102.214 0C103.479 -3.60537e-08 104.742 0.0627356 106 0.187971V11.438C104.744 11.2859 103.479 11.2231 102.214 11.25C96.1722 11.2495 90.3114 13.2943 85.6032 17.0455C80.8951 20.7967 77.6224 26.0289 76.3277 31.875H98.4286V43.125H76.3277C77.6224 48.9711 80.8951 54.2033 85.6032 57.9545C90.3114 61.7057 96.1722 63.7505 102.214 63.75C103.479 63.7769 104.744 63.7141 106 63.562V74.812Z" fill="black"/>
</g>
<defs>
<clipPath id="clip0_2202_529">
<rect width="106" height="75" fill="white"/>
</clipPath>
</defs>
</svg>
