<svg width="56" height="120" viewBox="0 0 56 120" fill="none" xmlns="http://www.w3.org/2000/svg">
<g clip-path="url(#clip0_2287_731)">
<rect x="5.24537e-06" y="120" width="120" height="56" rx="28" transform="rotate(-90 5.24537e-06 120)" fill="white" fill-opacity="0.1"/>
<path d="M27.2929 100.707C27.6834 101.098 28.3166 101.098 28.7071 100.707L35.0711 94.3431C35.4616 93.9526 35.4616 93.3195 35.0711 92.9289C34.6806 92.5384 34.0474 92.5384 33.6569 92.9289L28 98.5858L22.3432 92.9289C21.9526 92.5384 21.3195 92.5384 20.9289 92.9289C20.5384 93.3195 20.5384 93.9526 20.9289 94.3431L27.2929 100.707ZM28 20L27 20L27 100L28 100L29 100L29 20L28 20Z" fill="white"/>
</g>
<defs>
<clipPath id="clip0_2287_731">
<rect x="5.24537e-06" y="120" width="120" height="56" rx="28" transform="rotate(-90 5.24537e-06 120)" fill="white"/>
</clipPath>
</defs>
</svg>
