<svg width="32" height="32" viewBox="0 0 32 32" fill="none" xmlns="http://www.w3.org/2000/svg">
<path d="M4.10127 9.97742L9.81865 14.0613C10.1162 14.2737 10.2649 14.3799 10.4206 14.4045C10.5576 14.4259 10.6979 14.4042 10.8219 14.3423C10.9629 14.2719 11.0726 14.1257 11.292 13.8333L12.5001 12.2224C12.5621 12.1396 12.5932 12.0983 12.6296 12.0626C12.662 12.0309 12.6975 12.0026 12.7356 11.9782C12.7785 11.9506 12.8258 11.9296 12.9202 11.8876L18.0784 9.59511C18.2922 9.50009 18.399 9.45257 18.4797 9.37835C18.551 9.31273 18.6072 9.23233 18.6442 9.14278C18.6861 9.04154 18.6938 8.92481 18.7094 8.69134L19.0872 3.02619M18 18.0003L21.488 19.4951C21.8926 19.6686 22.095 19.7554 22.2022 19.8994C22.2962 20.0258 22.3425 20.1814 22.3328 20.3386C22.3217 20.5178 22.1996 20.701 21.9553 21.0673L20.3166 23.5254C20.2009 23.699 20.1429 23.7858 20.0665 23.8487C19.9988 23.9043 19.9208 23.9461 19.8369 23.9715C19.7422 24.0003 19.6378 24.0003 19.4292 24.0003H16.7688C16.4924 24.0003 16.3541 24.0003 16.2365 23.9541C16.1326 23.9133 16.0406 23.847 15.969 23.7614C15.888 23.6645 15.8442 23.5333 15.7569 23.271L14.8064 20.4195C14.7548 20.2647 14.729 20.1874 14.7222 20.1089C14.7162 20.0391 14.7212 19.9689 14.737 19.9007C14.7549 19.8239 14.7913 19.751 14.8642 19.6051L15.5862 18.1611C15.7329 17.8677 15.8062 17.721 15.9193 17.6299C16.0188 17.5497 16.1394 17.4998 16.2665 17.4861C16.4108 17.4706 16.5664 17.5225 16.8776 17.6262L18 18.0003ZM29.3333 16.0003C29.3333 23.3641 23.3637 29.3337 16 29.3337C8.63616 29.3337 2.66663 23.3641 2.66663 16.0003C2.66663 8.63653 8.63616 2.66699 16 2.66699C23.3637 2.66699 29.3333 8.63653 29.3333 16.0003Z" stroke="black" stroke-width="2" stroke-linecap="round" stroke-linejoin="round"/>
</svg>
