<svg width="32" height="32" viewBox="0 0 32 32" fill="none" xmlns="http://www.w3.org/2000/svg">
<path d="M27.3333 9.70345L16 15.9998M16 15.9998L4.66663 9.70345M16 15.9998V28.6665M18.6667 27.8517L17.036 28.7575C16.6579 28.9677 16.4688 29.0726 16.2687 29.1138C16.0913 29.1503 15.9087 29.1503 15.7315 29.1138C15.5312 29.0726 15.3421 28.9677 14.964 28.7575L5.09729 23.2761C4.69795 23.0542 4.49824 22.9433 4.35284 22.7854C4.22421 22.6459 4.12687 22.4805 4.06731 22.3002C4 22.0965 4 21.8681 4 21.4111V10.5884C4 10.1315 4 9.9031 4.06731 9.69937C4.12687 9.51913 4.22421 9.35369 4.35284 9.2141C4.49824 9.05631 4.69793 8.94538 5.09729 8.72351L14.964 3.24204C15.3421 3.03196 15.5312 2.92692 15.7315 2.88573C15.9087 2.84929 16.0913 2.84929 16.2687 2.88573C16.4688 2.92692 16.6579 3.03196 17.036 3.24204L26.9027 8.72351C27.3021 8.94538 27.5017 9.05631 27.6472 9.2141C27.7757 9.35369 27.8732 9.51913 27.9327 9.69937C28 9.9031 28 10.1315 28 10.5884V16.6665M10 5.99978L22 12.6664M21.3333 23.9998L24 26.6665L29.3333 21.3331" stroke="black" stroke-width="2" stroke-linecap="round" stroke-linejoin="round"/>
</svg>
