<svg width="120" height="100" viewBox="0 0 120 100" fill="none" xmlns="http://www.w3.org/2000/svg">
<g opacity="0.1" clip-path="url(#clip0_2202_523)">
<path d="M99.9168 21.9665C93.1629 12.0871 83.7693 5.13259 72.8062 1.92843C69.239 0.884656 65.2438 0.217123 61.8906 0.0957538C60.9156 0.0714799 59.9168 0.0229321 59.6909 0.0107952C58.7872 -0.0498896 54.9108 0.156439 53.4483 0.35063C47.6576 1.11526 42.7349 2.6081 37.6932 5.15686C31.0821 8.49453 25.4935 13.0823 20.9275 18.9202C19.8573 20.3038 17.9548 22.9982 17.9548 23.156C17.9548 23.1924 18.7396 23.2288 19.7146 23.2288H21.4626L22.176 22.2214C23.7575 20.0004 26.8371 16.5535 28.7515 14.8786L29.3817 14.3324L31.6052 14.8907C35.2081 15.7888 39.9168 16.6748 43.1629 17.0511C43.8526 17.1239 44.4471 17.2331 44.4947 17.2695C44.5541 17.3181 44.4352 17.8764 44.2331 18.5075C43.7218 20.1703 43.044 22.7433 43.044 23.0103C43.044 23.2045 43.1748 23.2288 44.5184 23.2288H45.981L46.302 22.003C46.7063 20.4616 47.5624 17.7307 47.6576 17.6337C47.7051 17.5851 48.5731 17.6215 49.5838 17.7065C53.5315 18.0463 59.4412 18.1798 63.6385 18.0342C65.8264 17.9492 68.3591 17.8278 69.2509 17.755C70.1546 17.6822 70.9394 17.6701 70.9869 17.7307C71.0821 17.84 71.6647 19.6484 72.0452 20.9834C72.1641 21.4447 72.3663 22.1486 72.4614 22.5248L72.6635 23.2288H74.138C75.2557 23.2288 75.6243 23.1924 75.6243 23.071C75.6243 22.8768 74.9108 20.2552 74.4471 18.6896C74.245 18.0342 74.0785 17.4516 74.0785 17.403C74.0785 17.3666 74.8157 17.2331 75.7194 17.1118C79.7146 16.6141 83.7218 15.8738 87.3603 14.9635L89.3936 14.4416L90.2259 15.1941C92.1641 16.954 95.113 20.3038 96.6231 22.4399L97.1701 23.2288H98.8823C100.059 23.2288 100.595 23.1924 100.595 23.0953C100.595 23.0225 100.285 22.5127 99.9168 21.9665ZM46.1712 13.0944L45.6718 14.3081L45.22 14.2717C43.1272 14.1018 37.1225 13.0944 34.245 12.4269C33.3651 12.2327 32.6041 12.0628 32.5565 12.0628C32.2236 12.0628 32.6516 11.6865 33.9834 10.8005C39.4293 7.15946 44.6374 4.96267 51.0107 3.5912C51.308 3.51837 51.6766 3.46983 51.8431 3.45769C52.1165 3.44555 52.1165 3.45769 51.7123 3.89462C49.8811 5.86081 47.6219 9.6354 46.1712 13.0944ZM64.2687 14.9878C60.0595 15.1699 52.3306 14.9999 49.3817 14.6722C48.8704 14.6116 48.7753 14.563 48.8347 14.3931C48.8704 14.2839 49.346 13.2522 49.893 12.1235C52.2949 7.11091 54.9108 4.07667 57.6576 3.11786C59.2747 2.55956 60.9513 2.83871 62.6041 3.93103C64.1736 4.98695 65.7075 6.75894 67.2533 9.3077C68.0143 10.5457 69.7979 14.1989 69.7979 14.5023C69.7979 14.7329 69.3223 14.7693 64.2687 14.9878ZM73.7218 14.3081L72.9489 14.3809L72.5327 13.325C71.9858 11.905 70.7135 9.35625 69.8692 7.9605C69.1796 6.83176 67.824 4.92626 67.0036 3.9553C66.4804 3.34846 66.4685 3.34846 68.3829 3.76111C73.9596 4.96267 79.572 7.39006 84.6374 10.8005C85.5648 11.4195 86.3258 11.9778 86.3258 12.0385C86.3258 12.3419 77.4673 13.9319 73.7218 14.3081Z" fill="black"/>
<path d="M114.102 33.9584C110.832 30.6328 106.611 28.5938 101.308 27.7806C100 27.5743 95.1843 27.4287 93.9952 27.55C90.4518 27.9263 87.5862 28.6909 84.9346 29.9653C78.585 33.0359 74.6373 38.7403 73.6623 46.2652C73.4602 47.8552 73.4245 51.6904 73.6028 53.2076C74.0547 57.0064 75.1843 60.2591 77.0155 63.0992C78.5256 65.4295 81.3199 67.9904 83.9477 69.4468C87.8359 71.6072 93.2699 72.6874 98.6088 72.3718C108.799 71.7528 116.04 66.631 118.835 58.0623C119.655 55.5379 120 53.1347 120 49.9306C120.012 43.2431 118.086 38.0242 114.102 33.9584ZM102.556 59.9436C101.07 61.4728 99.7027 62.0311 97.1938 62.1525C92.3781 62.3831 89.4649 59.895 88.3353 54.579C87.9786 52.8799 87.8835 48.5227 88.157 46.4958C88.8704 41.3012 91.1772 38.4248 95.1367 37.8058C96.1237 37.648 98.1807 37.7451 99.1677 37.9757C100.927 38.4126 102.509 39.5292 103.484 41.0463C104.887 43.2067 105.47 45.8162 105.47 49.9306C105.458 54.9431 104.625 57.8439 102.556 59.9436Z" fill="black"/>
<path d="M98.8823 76.874H97.182L96.1475 78.2576C95.5886 79.0223 94.5422 80.3209 93.8288 81.1584C92.5922 82.5784 90.0238 85.1878 89.4531 85.5762C89.2153 85.734 89.0131 85.7097 87.3128 85.2607C84.031 84.4111 79.7028 83.5736 76.2188 83.1246C75.3984 83.0275 74.566 82.9061 74.352 82.8697L73.9715 82.809L74.2688 81.9351C74.5898 80.9885 75.6243 77.2017 75.6243 76.9954C75.6243 76.9104 75.1249 76.874 74.1261 76.8983L72.6279 76.9347L72.2355 78.3911C72.0214 79.1922 71.6647 80.418 71.4388 81.122L71.0345 82.3963H70.2616C69.8455 82.3963 68.2997 82.3114 66.8253 82.2143C62.1285 81.8987 52.1166 82.008 48.2759 82.4085L47.61 82.4813L47.1106 80.8671C46.849 79.9689 46.4804 78.7067 46.3021 78.0513L45.981 76.874H44.5185C43.1867 76.874 43.044 76.8983 43.044 77.0925C43.044 77.3595 43.7456 79.9568 44.2331 81.5225C44.4352 82.19 44.5898 82.7362 44.566 82.7483C44.5423 82.7604 43.5672 82.8939 42.3901 83.0396C38.5851 83.5129 34.899 84.2047 31.1772 85.1393L29.239 85.6248L28.5613 85.0301C26.6945 83.3794 23.3889 79.6291 21.8788 77.4445L21.4864 76.874H19.7147C18.3235 76.874 17.9549 76.9104 18.0262 77.0197C19.5244 79.6291 22.9489 83.8285 25.6838 86.4258C33.6386 93.975 42.8062 98.3443 53.6861 99.7765C55.7789 100.043 62.176 100.08 64.3877 99.8371C77.7884 98.32 89.9049 91.4262 98.1094 80.6365C99.025 79.4349 100.595 77.1289 100.595 76.9711C100.595 76.9226 99.8217 76.874 98.8823 76.874ZM51.9739 96.6573C51.9025 96.6573 51.094 96.4995 50.1784 96.2931C45.7551 95.3465 41.3318 93.6352 37.2652 91.317C35.6956 90.431 32.5684 88.3799 32.3544 88.1128C32.2593 87.9915 32.6873 87.858 34.2807 87.506C36.7896 86.9598 39.025 86.5714 41.8788 86.1709C43.0797 86.001 44.2212 85.8432 44.4115 85.819C44.6136 85.7825 44.9703 85.7704 45.22 85.7825L45.6719 85.7947L46.2426 87.1297C47.717 90.5888 49.5363 93.6473 51.4626 95.8926C51.8193 96.3174 52.0452 96.6573 51.9739 96.6573ZM62.0096 96.4995C60.7967 97.1306 60.0119 97.3127 58.9299 97.2277C57.8241 97.1306 57.1463 96.8879 56.0286 96.1475C54.3163 95.0066 52.6517 93.0162 50.9632 90.0548C50.1784 88.6711 48.6802 85.5277 48.7753 85.4306C48.811 85.3942 51.0107 85.2607 54.2212 85.0786C55.7908 84.9936 65.2914 85.115 67.2414 85.2485C69.5482 85.4063 69.7979 85.4427 69.7979 85.6369C69.7979 86.001 67.5863 90.3096 66.6945 91.6811C65.3508 93.7565 63.377 95.7834 62.0096 96.4995ZM85.3033 88.8411C81.7598 91.3291 76.8609 93.8051 72.9727 95.0673C70.8086 95.7713 66.7658 96.7665 66.635 96.633C66.6112 96.5966 66.8847 96.2325 67.2533 95.7955C68.1332 94.7639 69.1439 93.3317 69.9763 91.9238C70.7491 90.6252 72.2236 87.6395 72.6635 86.4986L73.3651 85.7947C73.591 85.8311 74.6374 85.9646 75.6838 86.0981C78.7159 86.4986 82.5327 87.2026 85.7194 87.9551L86.3496 88.1007L85.3033 88.8411Z" fill="black"/>
<path d="M56.3021 27.8533C58.157 28.0839 59.2034 28.1325 64.1855 28.1689L69.9168 28.2174V41.3132H59.7028L59.6671 39.8932L59.6314 38.461L58.918 38.1697C56.8728 37.3444 54.1261 36.8953 51.0702 36.8832C48.0619 36.8832 46.7063 37.1502 45.4103 38.0362C44.0785 38.9222 43.8883 40.7306 44.9941 41.8472C46.1475 43.0366 47.5625 43.4129 53.8645 44.2139C59.3104 44.9179 61.415 45.3669 64.0547 46.4228C65.327 46.9326 66.9323 47.8914 67.9311 48.7531C69.4055 50.0032 70.6183 52.0665 71.1772 54.2512C71.5934 55.8775 71.7123 59.0089 71.415 60.6716C70.9037 63.5117 69.8574 65.5507 67.943 67.4076C65.874 69.4224 63.2105 70.7453 59.5363 71.5827C55.4816 72.5173 49.7384 72.6629 43.9834 71.9954C42.0095 71.7769 40.868 71.7284 36.1237 71.692L30.5589 71.6434V58.669H40.7848V61.3392L41.2485 61.5819C42.7587 62.3587 45.8621 62.9291 49.132 63.0019C54.7682 63.1476 57.3009 62.1281 57.3128 59.7007C57.3128 58.754 57.0512 58.2442 56.2664 57.6859C55.1249 56.8606 53.5197 56.4844 48.3948 55.8168C42.2355 55.0037 39.7979 54.4332 37.1225 53.1467C32.8538 51.0834 30.7491 47.94 30.3211 42.9881C30.0833 40.3665 30.4994 37.9148 31.5101 35.7787C33.7812 30.9846 38.9774 28.2295 47.0274 27.5499C48.6445 27.4164 54.2331 27.5984 56.3021 27.8533Z" fill="black"/>
<path d="M27.4673 33.7271V39.1281H24.019H20.5707V50.0513V60.9746H24.019H27.4673V66.3755V71.7765L13.7693 71.7522L0.059453 71.7158L0.0237812 66.3391L0 60.9746H3.44828H6.89655V50.0513V39.1281L3.48395 39.1038L0.059453 39.0674L0.0237812 33.6907L0 28.3262H13.7336H27.4673V33.7271Z" fill="black"/>
</g>
<defs>
<clipPath id="clip0_2202_523">
<rect width="120" height="100" fill="white"/>
</clipPath>
</defs>
</svg>
